name rise42.5664peak47.7979fall81.9185.mot
datacolumns 19
datarows 35
range 8.18163200000000 8.23830000000000
endheader
time	ground_force1_vx	ground_force1_vy	ground_force1_vz	ground_force1_px	ground_force1_py	ground_force1_pz	ground_force2_vx	ground_force2_vy	ground_force2_vz	ground_force2_px	ground_force2_py	ground_force2_pz	ground_torque1_x	ground_torque1_y	ground_torque1_z	ground_torque2_x	ground_torque2_y	ground_torque2_z	
8.18163200000000	-6.14277200000000	42.68370700000000	-6.89102400000000	0.28648300000000	0.00000000000000	0.10312000000000	-38.13139400000000	795.98251500000003	-52.05432500000000	0.10558800000000	0.00000000000000	-0.07288200000000	0.00000000000000	-3.55200400000000	0.00000000000000	0.00000000000000	-15.28250400000000	0.00000000000000	
8.18330600000000	-6.75775200000000	49.89836300000000	-7.70848800000000	0.29001000000000	0.00000000000000	0.10376500000000	-38.90508300000000	793.95153200000004	-51.70038600000000	0.10480100000000	0.00000000000000	-0.07278900000000	0.00000000000000	-4.01903600000000	0.00000000000000	0.00000000000000	-15.23321500000000	0.00000000000000	
8.18496800000000	-7.26011800000000	57.17146100000000	-8.43692500000000	0.29318500000000	0.00000000000000	0.10436000000000	-39.69173100000000	791.76690699999995	-51.31720700000000	0.10401400000000	0.00000000000000	-0.07269100000000	0.00000000000000	-4.44926100000000	0.00000000000000	0.00000000000000	-15.18430900000000	0.00000000000000	
8.18663400000000	-7.63233600000000	64.40736600000000	-9.05810900000000	0.29606200000000	0.00000000000000	0.10491100000000	-40.49047800000000	789.42587200000003	-50.90476300000000	0.10322900000000	0.00000000000000	-0.07259000000000	0.00000000000000	-4.83270000000000	0.00000000000000	0.00000000000000	-15.13576400000000	0.00000000000000	
8.18830100000000	-7.86345300000000	71.53486300000000	-9.56027400000000	0.29868400000000	0.00000000000000	0.10542400000000	-41.30036400000000	786.92570000000001	-50.46308700000000	0.10244400000000	0.00000000000000	-0.07248600000000	0.00000000000000	-5.16264200000000	0.00000000000000	0.00000000000000	-15.08754500000000	0.00000000000000	
8.18997000000000	-7.94904700000000	78.50923200000000	-9.93814600000000	0.30108600000000	0.00000000000000	0.10590500000000	-42.12033100000000	784.26370899999995	-49.99226600000000	0.10166100000000	0.00000000000000	-0.07237800000000	0.00000000000000	-5.43572500000000	0.00000000000000	0.00000000000000	-15.03960100000000	0.00000000000000	
8.19163100000000	-7.89066500000000	85.31180200000000	-10.19243900000000	0.30329800000000	0.00000000000000	0.10635600000000	-42.94922300000000	781.43726600000002	-49.49245100000000	0.10088000000000	0.00000000000000	-0.07226600000000	0.00000000000000	-5.65172100000000	0.00000000000000	0.00000000000000	-14.99186900000000	0.00000000000000	
8.19330700000000	-7.69485800000000	91.94742800000000	-10.32894300000000	0.30534500000000	0.00000000000000	0.10678100000000	-43.78579000000000	778.44379300000003	-48.96384700000000	0.10010000000000	0.00000000000000	-0.07215000000000	0.00000000000000	-5.81310800000000	0.00000000000000	0.00000000000000	-14.94427300000000	0.00000000000000	
8.19496600000000	-7.37199400000000	98.44046600000000	-10.35735500000000	0.30724700000000	0.00000000000000	0.10718400000000	-44.62868300000000	775.28077399999995	-48.40672400000000	0.09932100000000	0.00000000000000	-0.07203100000000	0.00000000000000	-5.92447900000000	0.00000000000000	0.00000000000000	-14.89672200000000	0.00000000000000	
8.19663300000000	-6.93495100000000	104.82983900000001	-10.28999000000000	0.30902200000000	0.00000000000000	0.10756500000000	-45.47646200000000	771.94575799999996	-47.82141000000000	0.09854400000000	0.00000000000000	-0.07190800000000	0.00000000000000	-5.99188700000000	0.00000000000000	0.00000000000000	-14.84911100000000	0.00000000000000	
8.19829700000000	-6.39785200000000	111.16376000000000	-10.14049900000000	0.31068500000000	0.00000000000000	0.10792800000000	-46.32759600000000	768.43636600000002	-47.20829500000000	0.09776900000000	0.00000000000000	-0.07178200000000	0.00000000000000	-6.02217500000000	0.00000000000000	0.00000000000000	-14.80132200000000	0.00000000000000	
8.19997200000000	-5.77491000000000	117.49460300000000	-9.92270500000000	0.31224900000000	0.00000000000000	0.10827300000000	-47.18046500000000	764.75030300000003	-46.56783000000000	0.09699700000000	0.00000000000000	-0.07165100000000	0.00000000000000	-6.02235900000000	0.00000000000000	0.00000000000000	-14.75322500000000	0.00000000000000	
8.20163200000000	-5.07947400000000	123.87430000000001	-9.64961500000000	0.31372500000000	0.00000000000000	0.10860300000000	-48.03336400000000	760.88535700000000	-45.90052600000000	0.09622700000000	0.00000000000000	-0.07151700000000	0.00000000000000	-5.99910400000000	0.00000000000000	0.00000000000000	-14.70467600000000	0.00000000000000	
8.20330200000000	-4.32330900000000	130.35054900000000	-9.33266900000000	0.31512200000000	0.00000000000000	0.10891800000000	-48.88450600000000	756.83941700000003	-45.20695500000000	0.09545900000000	0.00000000000000	-0.07138000000000	0.00000000000000	-5.95830900000000	0.00000000000000	0.00000000000000	-14.65551900000000	0.00000000000000	
8.20497000000000	-3.51612800000000	136.96396300000001	-8.98123900000000	0.31644800000000	0.00000000000000	0.10922000000000	-49.73202800000000	752.61047399999995	-44.48775100000000	0.09469500000000	0.00000000000000	-0.07123800000000	0.00000000000000	-5.90482400000000	0.00000000000000	0.00000000000000	-14.60558400000000	0.00000000000000	
8.20663400000000	-2.66536100000000	143.74623099999999	-8.60236700000000	0.31771000000000	0.00000000000000	0.10951000000000	-50.57399500000000	748.19663700000001	-43.74360600000000	0.09393500000000	0.00000000000000	-0.07109300000000	0.00000000000000	-5.84230000000000	0.00000000000000	0.00000000000000	-14.55469400000000	0.00000000000000	
8.20830000000000	-1.77614800000000	150.71923799999999	-8.20072800000000	0.31891300000000	0.00000000000000	0.10978800000000	-51.40840300000000	743.59613999999999	-42.97527100000000	0.09317800000000	0.00000000000000	-0.07094400000000	0.00000000000000	-5.77314400000000	0.00000000000000	0.00000000000000	-14.50265700000000	0.00000000000000	
8.20997200000000	-0.85150200000000	157.89504099999999	-7.77876900000000	0.32006400000000	0.00000000000000	0.11005500000000	-52.23318500000000	738.80735600000003	-42.18355500000000	0.09242600000000	0.00000000000000	-0.07079200000000	0.00000000000000	-5.69858500000000	0.00000000000000	0.00000000000000	-14.44927200000000	0.00000000000000	
8.21163800000000	0.10738500000000	165.27654100000001	-7.33699900000000	0.32116600000000	0.00000000000000	0.11031200000000	-53.04621900000000	733.82880899999998	-41.36932200000000	0.09167900000000	0.00000000000000	-0.07063600000000	0.00000000000000	-5.61880700000000	0.00000000000000	0.00000000000000	-14.39432900000000	0.00000000000000	
8.21329900000000	1.10076300000000	172.85867900000000	-6.87435900000000	0.32222300000000	0.00000000000000	0.11056000000000	-53.84533100000000	728.65918499999998	-40.53349300000000	0.09093700000000	0.00000000000000	-0.07047600000000	0.00000000000000	-5.53314000000000	0.00000000000000	0.00000000000000	-14.33761000000000	0.00000000000000	
8.21496800000000	2.12989100000000	180.62996899999999	-6.38864800000000	0.32323700000000	0.00000000000000	0.11079900000000	-54.62830300000000	723.29734900000005	-39.67704100000000	0.09020100000000	0.00000000000000	-0.07031200000000	0.00000000000000	-5.44027500000000	0.00000000000000	0.00000000000000	-14.27888600000000	0.00000000000000	
8.21663800000000	3.19660900000000	188.57418500000000	-5.87695300000000	0.32421200000000	0.00000000000000	0.11102900000000	-55.39287700000000	717.74235599999997	-38.80098700000000	0.08947100000000	0.00000000000000	-0.07014500000000	0.00000000000000	-5.33849000000000	0.00000000000000	0.00000000000000	-14.21792500000000	0.00000000000000	
8.21830400000000	4.30293700000000	196.67205700000000	-5.33605600000000	0.32514900000000	0.00000000000000	0.11125200000000	-56.13676700000000	711.99346700000001	-37.90640500000000	0.08874800000000	0.00000000000000	-0.06997400000000	0.00000000000000	-5.22586400000000	0.00000000000000	0.00000000000000	-14.15448600000000	0.00000000000000	
8.21997300000000	5.45073500000000	204.90285000000000	-4.76278500000000	0.32605000000000	0.00000000000000	0.11146600000000	-56.85765900000000	706.05016100000000	-36.99441200000000	0.08803300000000	0.00000000000000	-0.06979900000000	0.00000000000000	-5.10046300000000	0.00000000000000	0.00000000000000	-14.08832400000000	0.00000000000000	
8.22163400000000	6.64142400000000	213.24572000000001	-4.15430300000000	0.32691600000000	0.00000000000000	0.11167400000000	-57.55322600000000	699.91214900000000	-36.06616900000000	0.08732500000000	0.00000000000000	-0.06962000000000	0.00000000000000	-4.96049800000000	0.00000000000000	0.00000000000000	-14.01919100000000	0.00000000000000	
8.22330300000000	7.87578800000000	221.68081599999999	-3.50831700000000	0.32774800000000	0.00000000000000	0.11187400000000	-58.22112700000000	693.57938700000000	-35.12287900000000	0.08662500000000	0.00000000000000	-0.06943800000000	0.00000000000000	-4.80444200000000	0.00000000000000	0.00000000000000	-13.94683500000000	0.00000000000000	
8.22496700000000	9.15385700000000	230.19006700000000	-2.82321900000000	0.32854700000000	0.00000000000000	0.11206800000000	-58.85902400000000	687.05208600000003	-34.16578000000000	0.08593400000000	0.00000000000000	-0.06925300000000	0.00000000000000	-4.63110100000000	0.00000000000000	0.00000000000000	-13.87100200000000	0.00000000000000	
8.22663900000000	10.47485100000000	238.75768700000000	-2.09814000000000	0.32931400000000	0.00000000000000	0.11225600000000	-59.46458300000000	680.33071900000004	-33.19614800000000	0.08525200000000	0.00000000000000	-0.06906300000000	0.00000000000000	-4.43966100000000	0.00000000000000	0.00000000000000	-13.79143900000000	0.00000000000000	
8.22830100000000	11.83719900000000	247.37039899999999	-1.33295800000000	0.33004700000000	0.00000000000000	0.11243800000000	-60.03548600000000	673.41603499999997	-32.21528900000000	0.08457900000000	0.00000000000000	-0.06887000000000	0.00000000000000	-4.22968900000000	0.00000000000000	0.00000000000000	-13.70789400000000	0.00000000000000	
8.22996600000000	13.23859500000000	256.01742999999999	-0.52824900000000	0.33074800000000	0.00000000000000	0.11261300000000	-60.56944200000000	666.30905600000006	-31.22453800000000	0.08391700000000	0.00000000000000	-0.06867400000000	0.00000000000000	-4.00111000000000	0.00000000000000	0.00000000000000	-13.62011700000000	0.00000000000000	
8.23163500000000	14.67609900000000	264.69031600000000	0.31480600000000	0.33141500000000	0.00000000000000	0.11278400000000	-61.06419000000000	659.01108799999997	-30.22525800000000	0.08326500000000	0.00000000000000	-0.06847400000000	0.00000000000000	-3.75417100000000	0.00000000000000	0.00000000000000	-13.52786400000000	0.00000000000000	
8.23329800000000	16.14625100000000	273.38257900000002	1.19452400000000	0.33204900000000	0.00000000000000	0.11294800000000	-61.51751700000000	651.52371800000003	-29.21883400000000	0.08262300000000	0.00000000000000	-0.06827000000000	0.00000000000000	-3.48938200000000	0.00000000000000	0.00000000000000	-13.43089400000000	0.00000000000000	
8.23496300000000	17.64520000000000	282.08932299999998	2.10884200000000	0.33264900000000	0.00000000000000	0.11310800000000	-61.92726000000000	643.84881600000006	-28.20667000000000	0.08199300000000	0.00000000000000	-0.06806300000000	0.00000000000000	-3.20745700000000	0.00000000000000	0.00000000000000	-13.32897500000000	0.00000000000000	
8.23663800000000	19.16883200000000	290.80679700000002	3.05543800000000	0.33321300000000	0.00000000000000	0.11326300000000	-62.29132600000000	635.98853499999996	-27.19019000000000	0.08137400000000	0.00000000000000	-0.06785300000000	0.00000000000000	-2.90925300000000	0.00000000000000	0.00000000000000	-13.22188700000000	0.00000000000000	
8.23830000000000	20.71288500000000	299.53197399999999	4.03184100000000	0.33374200000000	0.00000000000000	0.11341300000000	-62.60769200000000	627.94530799999995	-26.17082900000000	0.08076600000000	0.00000000000000	-0.06763900000000	0.00000000000000	-2.59571000000000	0.00000000000000	0.00000000000000	-13.10941600000000	0.00000000000000	
